<?xml version="1.0" encoding="UTF-8"?>
<svg width="52px" height="28px" viewBox="0 0 52 28" version="1.1" xmlns="http://www.w3.org/2000/svg" xmlns:xlink="http://www.w3.org/1999/xlink">
    <!-- Generator: Sketch 61.2 (89653) - https://sketch.com -->
    <title>iuap</title>
    <desc>Created with Sketch.</desc>
    <g id="Symbols" stroke="none" stroke-width="1" fill="none" fill-rule="evenodd">
        <g id="TopBar/开放平台后台管理" transform="translate(-26.000000, -10.000000)" fill="#FFFFFF" fill-rule="nonzero">
            <path d="M59.6470588,13.8341903 L60.4219608,13.8341903 C60.4219608,13.8341903 62.2572549,10.2600873 62.2980392,10.2194725 C62.2980392,10.1788577 62.2980392,10.1382429 62.2572549,10.1382429 L61.5231373,10.1382429 C61.4007843,10.1382429 61.3192157,10.1788577 61.2784314,10.2600873 C61.2784314,10.3007021 60.707451,11.3566871 60.707451,11.3566871 C60.6666667,11.4379167 60.585098,11.4379167 60.5443137,11.3566871 C60.5443137,11.3566871 60.054902,10.3413169 60.0141176,10.3007021 C59.9733333,10.1788577 59.8509804,10.1382429 59.7286275,10.1382429 L59.0352941,10.1382429 C58.9945098,10.1382429 58.9945098,10.1788577 58.9945098,10.1788577 C58.9945098,10.2194725 60.0956863,12.5751313 60.0956863,12.5751313 C60.0956863,12.5751313 59.5654902,13.5905014 59.5247059,13.6311162 C59.4839216,13.7529606 59.5247059,13.8341903 59.6470588,13.8341903 Z M63.6847059,10.0163985 C63.1952941,10.0163985 62.8282353,10.1382429 62.5427451,10.3819317 C62.2980392,10.6256206 62.134902,10.9911538 62.134902,11.2754575 C62.134902,11.6409907 62.2980392,11.9659092 62.5427451,12.1689832 C62.8282353,12.412672 63.2360784,12.5345165 63.6847059,12.5345165 C64.1741176,12.5345165 64.5411765,12.412672 64.8266667,12.1689832 C65.0713725,11.9252944 65.2345098,11.5597611 65.2345098,11.2754575 C65.2752941,10.9099242 65.1529412,10.5850058 64.867451,10.3819317 C64.5819608,10.1382429 64.214902,10.0163985 63.6847059,10.0163985 Z M64.214902,11.5191463 C63.9701961,11.9659092 63.6847059,12.1283684 63.3584314,12.006524 C63.0321569,11.8846796 62.9913725,11.5191463 63.2360784,11.0317686 C63.4807843,10.5850058 63.7662745,10.4225465 64.092549,10.5443909 C64.4188235,10.7068502 64.4596078,11.0317686 64.214902,11.5191463 Z M69.1498039,13.8341903 L69.9247059,13.8341903 C69.9247059,13.8341903 71.76,10.2600873 71.8007843,10.2194725 C71.8007843,10.1788577 71.8007843,10.1382429 71.76,10.1382429 L71.0258824,10.1382429 C70.9035294,10.1382429 70.8219608,10.1788577 70.7811765,10.2600873 C70.7811765,10.3007021 70.2101961,11.3566871 70.2101961,11.3566871 C70.1694118,11.4379167 70.0878431,11.4379167 70.0470588,11.3566871 C70.0470588,11.3566871 69.5576471,10.3413169 69.5168627,10.3007021 C69.4760784,10.1788577 69.3537255,10.1382429 69.2313725,10.1382429 L68.5380392,10.1382429 C68.4972549,10.1382429 68.4972549,10.1788577 68.4972549,10.1788577 C68.4972549,10.2194725 69.5984314,12.5751313 69.5984314,12.5751313 C69.5984314,12.5751313 69.0682353,13.5905014 69.027451,13.6311162 C68.9866667,13.7529606 69.027451,13.8341903 69.1498039,13.8341903 Z M73.187451,12.5345165 C73.6768627,12.5345165 74.0439216,12.412672 74.3294118,12.1689832 C74.5741176,11.9252944 74.7372549,11.5597611 74.7372549,11.2754575 C74.7372549,10.9099242 74.614902,10.5850058 74.3294118,10.3819317 C74.0439216,10.1382429 73.6768627,10.0163985 73.1466667,10.0163985 C72.6572549,10.0163985 72.2901961,10.1382429 72.0047059,10.3819317 C71.76,10.6256206 71.5968627,10.9911538 71.5968627,11.2754575 C71.6376471,11.6409907 71.8007843,11.9659092 72.0454902,12.1689832 C72.3309804,12.412672 72.7388235,12.5345165 73.187451,12.5345165 Z M72.6980392,11.0317686 C72.9427451,10.5850058 73.2282353,10.4225465 73.5545098,10.5443909 C73.8807843,10.7068502 73.9215686,11.0317686 73.6768627,11.5191463 C73.4321569,11.9659092 73.1466667,12.1283684 72.8203922,12.006524 C72.4941176,11.8440647 72.4533333,11.5191463 72.6980392,11.0317686 Z M65.52,12.4939016 L66.3764706,12.4939016 C66.4580392,12.4939016 66.4988235,12.4532868 66.4988235,12.3720572 L66.4988235,10.6256206 C67.0698039,10.4631613 67.4368627,10.6256206 67.4368627,10.8693094 L67.4368627,12.3720572 C67.4368627,12.4532868 67.4776471,12.4939016 67.5592157,12.4939016 L68.4156863,12.4939016 L68.4156863,10.9099242 C68.4156863,10.0976281 67.3960784,9.73209482 65.6423529,10.2194725 C65.5607843,10.2600873 65.4792157,10.3413169 65.4792157,10.4631613 L65.52,12.4939016 Z M76.9803922,10.2194725 L76.9803922,11.9659092 C76.4094118,12.1283684 76.0423529,11.9659092 76.0423529,11.7222203 L76.0423529,10.2194725 C76.0423529,10.1382429 76.0015686,10.0976281 75.92,10.0976281 L75.0635294,10.0976281 L75.0635294,11.6816055 C75.0635294,12.4939016 76.0831373,12.8594349 77.8368627,12.3720572 C77.9184314,12.3314424 78,12.2502128 78,12.1283684 L78,10.0976281 L77.1027451,10.0976281 C77.0211765,10.0976281 76.9803922,10.1382429 76.9803922,10.2194725 Z M77.9592157,25.2469508 L74.4517647,25.2469508 L74.4517647,26.0592469 C74.4517647,26.3435506 74.4109804,26.5466246 74.3701961,26.8715431 L74.4109804,26.8715431 C74.2886275,27.927528 73.9623529,28.6992094 73.4321569,29.186587 L73.3913725,29.1459722 C72.8611765,29.6739647 72.1678431,29.9176535 71.2705882,29.8770387 C70.6180392,29.8770387 69.7207843,29.7145795 68.6196078,29.3490463 L68.6196078,25.2875656 L64.9898039,25.2875656 L64.9898039,38 L65.6831373,38 C66.1317647,38 66.825098,37.9593852 67.3145098,37.7156964 C68.252549,37.2283187 68.5788235,36.740941 68.6196078,35.1569636 L68.6196078,32.4357715 C69.6392157,32.7200752 70.5364706,32.8825344 71.2705882,32.8825344 L71.9639216,32.8825344 C75.8384314,32.7200752 77.8368627,30.6893349 77.9592157,26.3435506 L77.9592157,25.6530989 L77.9592157,25.2469508 Z M68.4972549,16.6366119 L67.7223529,16.6366119 C67.6,16.6366119 67.4776471,16.6366119 67.3552941,16.6772267 C66.9882353,16.7178415 66.5803922,16.7990711 66.294902,16.9615303 C65.4792157,17.3676784 65.1529412,17.7738265 65.0305882,18.7891966 C65.0305882,18.8704262 65.0305882,18.9516558 64.9898039,19.0735003 C64.9898039,19.1547299 64.9898039,19.2765743 64.9490196,19.3984187 L64.9490196,24.6377287 L68.5788235,24.6377287 L68.5788235,20.9011666 C69.68,20.2513296 70.7403922,19.9264112 71.76,19.9264112 C73.1466667,19.8857964 73.9623529,20.6980925 74.2886275,22.3632996 L75.1858824,21.3479294 L74.2886275,22.3632996 C74.3701961,22.8100624 74.4109804,23.3786697 74.4109804,23.947277 L74.4109804,24.5971139 L77.9184314,24.5971139 L77.9184314,23.947277 C77.9184314,21.9977663 77.5921569,20.4544037 76.9803922,19.2765743 C76.0423529,17.5301376 74.4109804,16.6366119 72.0862745,16.5959971 C70.7811765,16.5959971 69.5576471,16.9209155 68.4564706,17.5707524 L68.4564706,16.6366119 L68.4972549,16.6366119 Z M58.5458824,17.0021451 C58.4235294,16.9615303 58.2603922,16.9209155 58.1380392,16.8803007 C58.0564706,16.8396859 57.9341176,16.8396859 57.852549,16.7990711 C57.7709804,16.7584563 57.6894118,16.7584563 57.5670588,16.7178415 C57.5670588,16.7178415 57.3631373,16.6772267 57.2407843,16.6772267 C57.1592157,16.6772267 57.1184314,16.6772267 57.0368627,16.6366119 C56.9552941,16.6366119 56.7921569,16.5959971 56.6290196,16.5959971 C56.4658824,16.5959971 56.3027451,16.5553823 56.1396078,16.5553823 L55.1607843,16.5553823 C54.2635294,16.5553823 53.4070588,16.5959971 52.6729412,16.6772267 C52.1835294,16.7584563 51.4901961,16.8803007 51.1639216,17.04276 C50.4298039,17.3676784 49.8996078,17.9769005 49.8996078,20.1701 C50.307451,20.0888704 50.7152941,20.0482556 51.1231373,20.0076408 C51.2047059,20.0076408 51.2862745,19.967026 51.3678431,19.967026 C52.6729412,19.8045668 53.8556863,19.7233372 54.9976471,19.7233372 L55.6909804,19.7233372 C55.894902,19.7233372 56.0988235,19.763952 56.3027451,19.8045668 C57.4447059,20.0482556 57.974902,20.8605517 57.852549,22.2414552 L57.852549,22.688218 L56.3027451,22.688218 C55.0384314,22.6476032 53.9780392,22.688218 53.04,22.8912921 L52.9584314,22.8912921 L52.4690196,23.0131365 L52.387451,23.0131365 C52.2243137,23.0537513 52.0611765,23.1349809 51.8980392,23.1755957 L51.8572549,23.1755957 C51.734902,23.2162105 51.5717647,23.2974401 51.4494118,23.3380549 C51.4086275,23.3380549 51.3678431,23.3786697 51.3678431,23.3786697 C51.2454902,23.4598993 51.1231373,23.5005142 51.0007843,23.5817438 C51.0007843,23.5817438 50.96,23.5817438 50.96,23.6223586 L50.5929412,23.8660474 C50.5521569,23.8660474 50.5521569,23.9066622 50.5113725,23.9066622 C50.4298039,23.9878918 50.3482353,24.0691214 50.2666667,24.1097362 L50.185098,24.1909659 C50.1035294,24.2721955 49.9811765,24.3940399 49.8996078,24.5158843 L61.5231373,24.5158843 L61.5231373,22.2008404 C61.6047059,19.6014927 60.6666667,17.8956709 58.7090196,17.0833748 C58.6682353,17.04276 58.5866667,17.04276 58.5458824,17.0021451 Z M29.507451,13.6311162 C29.507451,13.6311162 28.1615686,13.5498866 27.3866667,13.9560347 C26.4078431,14.4434123 26,15.3775529 26,17.8144413 C26,17.8144413 26.4894118,17.3270636 27.2643137,17.04276 C27.8352941,16.8396859 28.2431373,16.5553823 28.5286275,16.3523082 C29.385098,15.7024713 29.507451,14.9714048 29.507451,13.6311162 Z M45.9027451,20.0482556 L45.9027451,16.5959971 L45.0054902,16.5959971 C44.5568627,16.5959971 44.0266667,16.6772267 43.6188235,16.8803007 C42.5176471,17.448908 42.2729412,17.9769005 42.2729412,20.3731741 L42.2729412,24.6377287 L45.9027451,24.6377287 L45.9027451,20.0482556 Z M26,25.2469508 L26,32.8419196 C26,32.8419196 27.3458824,33.0043788 28.2023529,32.557616 C29.3443137,31.9890087 29.5482353,31.4204014 29.5482353,29.0647426 L29.5482353,25.2469508 L26,25.2469508 Z M49.6141176,25.2469508 C49.4509804,25.5312545 49.2878431,25.7749433 49.1654902,26.0592469 L49.1247059,26.0186321 C49.0023529,26.4247802 48.9207843,26.8715431 48.88,27.3589208 L48.88,28.2930613 C48.9615686,31.298557 50.5521569,32.8013048 53.9372549,32.8013048 C54.1819608,32.8013048 54.3858824,32.8013048 54.6305882,32.76069 L54.7529412,32.76069 C54.9976471,32.7200752 55.2015686,32.7200752 55.4462745,32.6794604 C56.1396078,32.557616 56.8737255,32.3545419 57.5670588,32.0702383 C57.6486275,32.0296235 57.7709804,31.9890087 57.852549,31.9483939 L57.852549,32.8419196 L61.4007843,32.8419196 L61.4007843,25.2469508 L60.3811765,25.2469508 L49.6141176,25.2469508 Z M56.2619608,25.6937137 L57.8117647,25.6937137 L57.8117647,29.1053574 C56.9145098,29.6739647 55.772549,29.9988832 54.3858824,29.9988832 C53.7741176,29.9988832 53.3254902,29.8770387 52.9992157,29.6333499 L52.9176471,29.5521203 L52.7952941,29.4302759 C52.7545098,29.3896611 52.7545098,29.3490463 52.7137255,29.3490463 C52.6729412,29.3084315 52.6729412,29.2678166 52.6321569,29.2272018 C52.5913725,29.186587 52.5913725,29.1459722 52.5913725,29.1053574 C52.5098039,28.9428982 52.4690196,28.7398242 52.4282353,28.5367501 L52.4282353,27.7650688 C52.4282353,26.3029358 53.6109804,25.6124841 56.2619608,25.6937137 Z M27.0603922,18.0987449 C26.2039216,18.504893 26,18.9516558 26,19.5608779 L26,24.5564991 L29.507451,24.5564991 L29.507451,16.5147675 C29.507451,16.4741527 29.1403922,16.9615303 28.4470588,17.4082932 C27.9576471,17.6925969 27.5498039,17.8144413 27.0603922,18.0987449 Z M32.9333333,24.5971139 L36.4407843,24.5971139 L36.4407843,16.5959971 L35.8698039,16.5959971 C35.625098,16.5959971 35.3396078,16.5959971 35.094902,16.6366119 C34.972549,16.6772267 34.8094118,16.6772267 34.6870588,16.7178415 C34.5647059,16.7584563 34.4015686,16.7990711 34.2792157,16.8803007 C33.1780392,17.448908 32.9333333,17.9769005 32.9333333,20.3731741 L32.9333333,24.5971139 Z M42.2729412,28.5367501 C41.9466667,28.7398242 41.6203922,28.9022834 41.2941176,29.0647426 C40.9678431,29.2272018 40.6415686,29.3490463 40.3560784,29.4302759 C39.7443137,29.6333499 39.132549,29.7145795 38.5207843,29.7145795 C38.3576471,29.7145795 38.2352941,29.7145795 38.1129412,29.6739647 L38.0721569,29.6739647 C37.9498039,29.6333499 37.827451,29.6333499 37.705098,29.5521203 L37.6643137,29.5521203 C37.5419608,29.5115055 37.4603922,29.4302759 37.3380392,29.3896611 L37.2972549,29.3896611 C37.2156863,29.3084315 37.0933333,29.2272018 37.0117647,29.1459722 C36.6039216,28.6585946 36.3592157,27.8869132 36.3592157,26.7903135 L36.3592157,25.2469508 L32.9333333,25.2469508 L32.9333333,26.8309283 C32.892549,29.3490463 33.545098,31.0954829 34.8501961,32.0296235 C34.8909804,32.0296235 34.8909804,32.0702383 34.9317647,32.0702383 C35.0133333,32.1514679 35.1356863,32.1920827 35.2172549,32.2326975 C35.2580392,32.2733123 35.2988235,32.2733123 35.3803922,32.3139271 C35.4619608,32.3545419 35.5843137,32.3951567 35.6658824,32.4357715 C35.7066667,32.4357715 35.747451,32.4763863 35.8290196,32.4763863 C35.9513725,32.5170012 36.1145098,32.557616 36.2776471,32.5982308 L36.3592157,32.5982308 C36.4815686,32.6388456 36.6447059,32.6794604 36.7670588,32.6794604 C36.8078431,32.6794604 36.8894118,32.6794604 36.9301961,32.7200752 C37.052549,32.7200752 37.174902,32.76069 37.2972549,32.76069 L38.8062745,32.76069 C38.9286275,32.76069 39.0917647,32.7200752 39.2141176,32.7200752 C39.2956863,32.7200752 39.3364706,32.7200752 39.4180392,32.6794604 C39.5403922,32.6794604 39.7035294,32.6388456 39.8258824,32.5982308 C39.907451,32.5982308 39.9482353,32.557616 40.0298039,32.557616 C40.1521569,32.5170012 40.2745098,32.5170012 40.3968627,32.4763863 L40.4784314,32.4763863 C41.1309804,32.3139271 41.7427451,32.0702383 42.3545098,31.7859346 L42.3545098,32.76069 L42.8439216,32.76069 C43.292549,32.76069 44.1082353,32.76069 44.6792157,32.4763863 C45.7803922,31.9077791 46.025098,31.3797866 46.025098,28.983513 L46.025098,25.206336 L42.3952941,25.206336 L42.3952941,28.5367501 L42.2729412,28.5367501 Z" id="iuap"></path>
        </g>
    </g>
</svg>