<?xml version="1.0" encoding="UTF-8"?>
<svg width="26px" height="27px" viewBox="0 0 26 27" version="1.1" xmlns="http://www.w3.org/2000/svg" xmlns:xlink="http://www.w3.org/1999/xlink">
    <!-- Generator: Sketch 60 (88103) - https://sketch.com -->
    <title>画板</title>
    <desc>Created with Sketch.</desc>
    <defs>
        <linearGradient x1="79.3453559%" y1="4.94599624%" x2="27.1753535%" y2="100%" id="linearGradient-1">
            <stop stop-color="#F27B24" offset="0%"></stop>
            <stop stop-color="#EB093B" offset="100%"></stop>
        </linearGradient>
    </defs>
    <g id="画板" stroke="none" stroke-width="1" fill="none" fill-rule="evenodd">
        <path d="M17.9902316,5.77610478 L17.9902316,4.08061558 L20.3546146,4.08061558 C20.7564049,4.08061558 21.0821188,4.41799438 21.0821188,4.83416634 L21.0821188,23.2961598 C21.0821188,23.7123317 20.7564049,24.0497105 20.3546146,24.0497105 L5.64538536,24.0497105 C5.24359509,24.0497105 4.91788116,23.7123317 4.91788116,23.2961598 L4.91788116,4.83416634 C4.91788116,4.41799438 5.24359509,4.08061558 5.64538536,4.08061558 L8.16891346,4.08061558 L8.16891346,5.77610478 L6.55475995,5.77610478 L6.55475995,22.3542214 L19.4452628,22.3542214 L19.4452628,5.77610478 L17.9902543,5.77610478 L17.9902316,5.77610478 Z M14.1708175,5.77610478 L11.9883049,5.77610478 L11.9883049,4.08061558 L14.1708175,4.08061558 L14.1708175,5.77610478 Z M9.62367215,2.95028945 L10.5335689,2.95028945 C10.6338752,2.95028945 10.7151895,3.03463349 10.7151895,3.13867714 L10.7151895,6.71804322 C10.7151895,6.82208687 10.6338752,6.90643091 10.5335689,6.90643091 L9.62364945,6.90643091 C9.52334313,6.90643091 9.4420288,6.82208687 9.4420288,6.71804322 L9.4420288,3.13867714 C9.4420288,3.03463349 9.52334313,2.95028945 9.62364945,2.95028945 L9.62367215,2.95028945 Z M15.6255762,2.95028945 L16.5354729,2.95028945 C16.6357793,2.95028945 16.7170936,3.03463349 16.7170936,3.13867714 L16.7170936,6.71804322 C16.7170936,6.82208687 16.6357793,6.90643091 16.5354729,6.90643091 L15.6255762,6.90643091 C15.5252699,6.90643091 15.4439555,6.82208687 15.4439555,6.71804322 L15.4439555,3.13867714 C15.4439555,3.03463349 15.5252699,2.95028945 15.6255762,2.95028945 Z M8.16866373,9.54385854 L17.9904814,9.54385854 C18.0907877,9.54385854 18.172102,9.62820259 18.172102,9.73224623 L18.172102,10.6741847 C18.172102,10.7782283 18.0907877,10.8625724 17.9904814,10.8625724 L8.16866373,10.8625724 C8.06835742,10.8625724 7.98704308,10.7782283 7.98704308,10.6741847 L7.98704308,9.73224623 C7.98704308,9.62820259 8.06835742,9.54385854 8.16866373,9.54385854 Z M8.16866373,12.1812862 L17.9904814,12.1812862 C18.0907877,12.1812862 18.172102,12.2656302 18.172102,12.3696739 L18.172102,13.3116123 C18.172102,13.415656 18.0907877,13.5 17.9904814,13.5 L8.16866373,13.5 C8.06835742,13.5 7.98704308,13.415656 7.98704308,13.3116123 L7.98704308,12.3696739 C7.98704308,12.2656302 8.06835742,12.1812862 8.16866373,12.1812862 Z M8.16866373,14.8187138 L17.9904814,14.8187138 C18.0907877,14.8187138 18.172102,14.9030579 18.172102,15.0071015 L18.172102,15.9490399 C18.172102,16.0530836 18.0907877,16.1374276 17.9904814,16.1374276 L8.16866373,16.1374276 C8.06835742,16.1374276 7.98704308,16.0530836 7.98704308,15.9490399 L7.98704308,15.0071015 C7.98704308,14.9030579 8.06835742,14.8187138 8.16866373,14.8187138 Z M8.16866373,17.4561415 L17.9904814,17.4561415 C18.0907877,17.4561415 18.172102,17.5404855 18.172102,17.6445291 L18.172102,18.5864676 C18.172102,18.6905112 18.0907877,18.7748553 17.9904814,18.7748553 L8.16866373,18.7748553 C8.06835742,18.7748553 7.98704308,18.6905112 7.98704308,18.5864676 L7.98704308,17.6445291 C7.98704308,17.5404855 8.06835742,17.4561415 8.16866373,17.4561415 Z" id="形状备份" fill="url(#linearGradient-1)" fill-rule="nonzero"></path>
    </g>
</svg>