<?xml version="1.0" encoding="UTF-8"?>
<svg width="26px" height="27px" viewBox="0 0 26 27" version="1.1" xmlns="http://www.w3.org/2000/svg" xmlns:xlink="http://www.w3.org/1999/xlink">
    <!-- Generator: Sketch 60 (88103) - https://sketch.com -->
    <title>画板备份</title>
    <desc>Created with Sketch.</desc>
    <defs>
        <linearGradient x1="50%" y1="0%" x2="50%" y2="100%" id="linearGradient-1">
            <stop stop-color="#F27526" offset="0%"></stop>
            <stop stop-color="#EB093B" offset="100%"></stop>
        </linearGradient>
        <linearGradient x1="50%" y1="0%" x2="50%" y2="100%" id="linearGradient-2">
            <stop stop-color="#F27526" offset="0%"></stop>
            <stop stop-color="#EB093B" offset="100%"></stop>
        </linearGradient>
    </defs>
    <g id="画板备份" stroke="none" stroke-width="1" fill="none" fill-rule="evenodd">
        <g id="编组-2备份" transform="translate(3.000000, 4.500000)" fill-rule="nonzero">
            <path d="M2.96080267,4.26466608 L2.25886289,4.25050247 C1.04076544,4.22279011 0.0297145375,5.15026374 -1.54010138e-12,6.32263925 L-1.54010138e-12,16.3037381 C-1.54010138e-12,17.3157725 0.560960016,18.2509309 1.47157189,18.7569481 C2.38218377,19.2629653 3.50410387,19.2629653 4.41471575,18.7569481 C5.32532763,18.2509309 5.88628766,17.3157725 5.88628764,16.3037381 L5.88628764,2.12596035 C5.88628766,1.73484296 6.21571025,1.41777967 6.62207361,1.41777967 L18.3946489,1.4305269 C18.8010122,1.43052692 19.1304348,1.74759022 19.1304348,2.13870762 L19.1304348,16.3037381 C19.1304348,16.6948555 18.8010122,17.0119188 18.3946489,17.0119188 L8.0936455,17.0119188 C7.83073501,17.0118618 7.58777034,17.1468278 7.45629799,17.3659631 C7.32482564,17.5850984 7.32482564,17.8551007 7.45629799,18.074236 C7.58777034,18.2933713 7.83073501,18.4283373 8.0936455,18.4282803 L18.3946489,18.4282803 C19.6137389,18.4282803 20.6020067,17.4770903 20.6020067,16.3037381 L20.6020067,2.13870762 C20.6020067,0.966460762 19.6155325,0.0157284917 18.397592,0.0141655005 L6.62501674,2.54019028e-13 C6.0388242,-0.00075050818 5.47639434,0.222946843 5.06175523,0.62176379 C4.64711613,1.02058074 4.4143244,1.56176023 4.41471571,2.12596035 L4.41471571,16.3037381 C4.41471571,17.0859729 3.75587054,17.7200995 2.94314382,17.7200995 C2.13041711,17.7200995 1.47157193,17.0859729 1.47157193,16.3037381 L1.47157193,6.37362826 C1.47232142,6.18306763 1.55251532,6.00077204 1.69416566,5.86763152 C1.83581599,5.734491 2.02706586,5.66165012 2.22501674,5.66544754 L2.92548497,5.67961115 C3.19446598,5.69561825 3.45101737,5.5688106 3.59421384,5.34907332 C3.73741032,5.12933604 3.74433694,4.85183248 3.61226882,4.62573035 C3.48020071,4.39962822 3.230272,4.26110939 2.96080267,4.26466608 Z" id="路径" fill="url(#linearGradient-1)"></path>
            <path d="M8.0936455,4.26466608 L12.5083612,4.26466608 C12.9147246,4.26466608 13.2441472,4.58172939 13.2441472,4.9728468 C13.2441472,5.36396421 12.9147246,5.68102752 12.5083612,5.68102752 L8.0936455,5.68102752 C7.68728213,5.68102752 7.35785953,5.36396421 7.35785953,4.9728468 C7.35785953,4.58172939 7.68728213,4.26466608 8.0936455,4.26466608 L8.0936455,4.26466608 Z M8.0936455,8.51375034 L16.9230769,8.51375034 C17.1859874,8.51369334 17.4289521,8.64865935 17.5604244,8.86779464 C17.6918968,9.08692993 17.6918968,9.3569322 17.5604244,9.57606749 C17.4289521,9.79520278 17.1859874,9.93016879 16.9230769,9.93011178 L8.0936455,9.93011178 C7.68734689,9.93002364 7.35802534,9.61298615 7.35802534,9.22193106 C7.35802534,8.83087597 7.68734689,8.51383849 8.0936455,8.51375034 L8.0936455,8.51375034 Z M8.0936455,12.7628346 L16.9230769,12.7628346 C17.1859874,12.7627776 17.4289521,12.8977436 17.5604244,13.1168789 C17.6918968,13.3360142 17.6918968,13.6060164 17.5604244,13.8251517 C17.4289521,14.044287 17.1859874,14.179253 16.9230769,14.179196 L8.0936455,14.179196 C7.83073501,14.179253 7.58777034,14.044287 7.45629799,13.8251517 C7.32482564,13.6060164 7.32482564,13.3360142 7.45629799,13.1168789 C7.58777034,12.8977436 7.83073501,12.7627776 8.0936455,12.7628346 Z" id="形状" fill="url(#linearGradient-2)"></path>
        </g>
    </g>
</svg>